<svg width="56" height="56" xmlns="http://www.w3.org/2000/svg" fill="none">
 <g>
  <title>Layer 1</title>
  <circle cx="28.21528" cy="27.5" r="27.5" stroke="#E5E5E5" id="svg_2"/>
  <path d="m40.1281,25.17245c-0.3169,-0.39759 -0.7924,-0.62568 -1.3045,-0.62568l-4.6221,0l-2.5063,-5.73905c-0.1554,-0.35583 -0.5699,-0.51844 -0.9258,-0.36295c-0.3559,0.15539 -0.5184,0.5699 -0.3629,0.92578l2.2605,5.17626l-8.36521,0l2.26051,-5.17626c0.1554,-0.35588 -0.007,-0.77035 -0.36291,-0.92578c-0.35583,-0.15549 -0.77035,0.00703 -0.92574,0.36295l-2.50636,5.73909l-4.62206,0c-0.51216,0 -0.98761,0.22805 -1.30453,0.62569c-0.31111,0.39038 -0.42591,0.89222 -0.31495,1.377l2.46829,10.7813c0.17236,0.7528 0.83832,1.2785 1.61949,1.2785l15.74177,0c0.7811,0 1.4471,-0.5257 1.6195,-1.2785l2.4683,-10.7813c0.1109,-0.48483 -0.0039,-0.98667 -0.315,-1.37705zm-3.7728,12.03055l-15.74177,0c-0.11939,0 -0.22397,-0.0783 -0.24867,-0.1862l-2.4683,-10.78113c-0.01936,-0.08461 0.01312,-0.14826 0.04387,-0.18675c0.0285,-0.03581 0.09305,-0.09586 0.2048,-0.09586l4.00795,0l-0.18417,0.42174c-0.15539,0.3559 0.00708,0.7703 0.36296,0.9258c0.09159,0.04 0.18703,0.0589 0.28101,0.0589c0.27103,0 0.52931,-0.1576 0.64472,-0.4218l0.42998,-0.98454l9.59352,0l0.43,0.98454c0.1154,0.2643 0.3737,0.4218 0.6447,0.4218c0.094,0 0.1894,-0.0189 0.281,-0.0589c0.3559,-0.1554 0.5184,-0.5699 0.363,-0.9258l-0.1842,-0.42174l4.008,0c0.1117,0 0.1763,0.06005 0.2048,0.09586c0.0307,0.03853 0.0632,0.10219 0.0438,0.18671l-2.4683,10.78127c-0.0247,0.1078 -0.1293,0.1861 -0.2487,0.1861z" fill="black" id="svg_3"/>
  <path d="m24.26565,29c-0.38831,0 -0.70313,0.3149 -0.70313,0.7032l0,5.1562c0,0.3883 0.31482,0.7031 0.70313,0.7031c0.38831,0 0.70313,-0.3148 0.70313,-0.7031l0,-5.1562c0,-0.3883 -0.31477,-0.7032 -0.70313,-0.7032z" fill="black" id="svg_4"/>
  <path d="m28.4844,29c-0.3883,0 -0.7031,0.3149 -0.7031,0.7032l0,5.1562c0,0.3883 0.3148,0.7031 0.7031,0.7031c0.3883,0 0.7031,-0.3148 0.7031,-0.7031l0,-5.1562c0,-0.3883 -0.3148,-0.7032 -0.7031,-0.7032z" fill="black" id="svg_5"/>
  <path d="m32.7032,29c-0.3884,0 -0.7032,0.3149 -0.7032,0.7032l0,5.1562c0,0.3883 0.3148,0.7031 0.7032,0.7031c0.3883,0 0.7031,-0.3148 0.7031,-0.7031l0,-5.1562c-0.0001,-0.3883 -0.3148,-0.7032 -0.7031,-0.7032z" fill="black" id="svg_6"/>
 </g>

</svg>